<svg height="407pt" viewBox="-9 0 407 407.98549" width="407pt" xmlns="http://www.w3.org/2000/svg"><path d="m253.078125 126.292969c0 69.75-56.542969 126.292969-126.292969 126.292969s-126.292968-56.542969-126.292968-126.292969 56.542968-126.292969 126.292968-126.292969 126.292969 56.542969 126.292969 126.292969zm0 0" fill="#e7d1c4"/><path d="m40.460938 266.398438c-22.976563-45.953126-7.660157-84.246094-7.660157-84.246094 0 22.976562 45.953125 68.929687 45.953125 68.929687-22.976562-30.636719-30.636718-84.25-30.636718-84.25-7.65625-84.25 38.296874-99.566406 38.296874-99.566406-4 62.441406 22.976563 99.566406 22.976563 99.566406v-68.25c0-6.847656.433594-13.71875 1.890625-20.40625 14.039062-64.523437 82.355469-64.523437 82.355469-64.523437-18.222657 36.445312-17.175781 130.691406-15.960938 168.140625.390625 12.089843 2.8125 24.0625 7.613281 35.164062 3.308594 7.660157 7.03125 14.648438 10.890626 20.953125 8.261718 13.480469 20.148437 24.09375 33.410156 32.699219 4.558594 2.960937 8.855468 6.480469 12.78125 10.578125 27.785156 29.03125 26.78125 75.085938-2.246094 102.875-29.03125 27.785156-82.171875 17.753906-102.875-2.246094s-89.132812-69.460937-89.132812-69.460937l53.613281 7.65625s-38.292969-7.65625-61.269531-53.613281zm0 0" fill="#f53e28"/><path d="m192.878906 407.984375c-23.90625 0-47.503906-8.832031-60.371094-21.265625-20.121093-19.433594-87.707031-68.339844-88.386718-68.832031-2.546875-1.839844-3.507813-5.179688-2.328125-8.09375 1.183593-2.914063 4.242187-4.613281 7.292969-4.199219l15.148437 2.167969c-10.335937-8.570313-21.148437-20.84375-29.882813-38.308594-24.066406-48.140625-8.566406-88.152344-7.890624-89.832031 1.21875-3.046875 4.457031-4.769532 7.632812-4.175782 3.214844.621094 5.53125 3.433594 5.53125 6.707032 0 5.875 4.328125 14.59375 10.601562 24.035156-6.199218-20.21875-8.6875-37.140625-8.867187-38.386719-8.09375-88.960937 40.808594-106.316406 42.894531-107.007812 2.140625-.742188 4.519532-.324219 6.324219 1.066406 1.800781 1.386719 2.792969 3.574219 2.648437 5.839844-1.894531 29.5 3.472657 53.195312 9.339844 69.5625v-38.683594c0-8.492187.648438-15.441406 2.039063-21.851563 15.046875-69.101562 88.292969-69.902343 89.035156-69.902343 2.367187 0 4.558594 1.226562 5.804687 3.238281 1.246094 2.015625 1.359376 4.527344.300782 6.640625-17.941406 35.875-16.199219 135.261719-15.246094 164.871094.378906 11.71875 2.75 22.710937 7.058594 32.675781 2.960937 6.855469 6.472656 13.617188 10.441406 20.089844 7 11.425781 17.238281 21.414062 31.304688 30.539062 5.085937 3.300782 9.792968 7.203125 14 11.585938 30.339843 31.699218 29.242187 82.179687-2.457032 112.527344-14.121094 13.511718-33.140625 18.992187-51.96875 18.992187zm-118.757812-85.019531c22.011718 16.339844 54.425781 40.949218 67.875 53.933594 18.742187 18.121093 67.304687 27.226562 93.410156 2.230468 26.261719-25.136718 27.175781-66.953125 2.035156-93.222656-3.476562-3.625-7.359375-6.847656-11.566406-9.570312-15.808594-10.261719-27.425781-21.660157-35.515625-34.863282-4.300781-7.019531-8.113281-14.359375-11.332031-21.804687-4.996094-11.546875-7.742188-24.21875-8.167969-37.652344-1.160156-35.652344-2.015625-117.9375 12.265625-160.574219-18.492188 2.839844-55.566406 14.035156-65.171875 58.1875-1.179687 5.433594-1.734375 11.460938-1.734375 18.953125v68.253907c0 2.957031-1.90625 5.578124-4.722656 6.492187-2.792969.914063-5.882813-.078125-7.625-2.480469-1.085938-1.484375-24.828125-34.859375-24.695313-91.390625-11.59375 9.429688-29.160156 32.878907-24.257812 86.757813.03125.175781 7.65625 51.929687 29.292969 80.773437 2.152343 2.867188 1.71875 6.90625-.988282 9.253907-2.699218 2.332031-6.765625 2.199218-9.300781-.332032-3.476563-3.480468-26.136719-26.507812-39.023437-48.546875-.90625 14.386719.839843 34.332031 11.664062 55.988281 21.242188 42.472657 56.15625 49.898438 56.507812 49.972657 3.625.726562 6.011719 4.199219 5.386719 7.847656-.621093 3.644531-4.035156 6.117187-7.695312 5.605469zm0 0" fill="#4c241d"/><path d="m109.71875 174.492188c0-16.921876 13.71875-30.636719 30.636719-30.636719h76.589843s7.660157 15.316406-30.636718 22.976562c0 0 30.636718 53.613281-15.316406 107.226563-45.953126 53.613281-7.660157 99.566406-7.660157 99.566406s-76.589843-61.273438-15.316406-145.519531c0 0 30.636719-53.613281-38.296875-53.613281zm0 0" fill="#ffce56"/><path d="m163.332031 380.453125c-1.507812 0-3.011719-.492187-4.265625-1.492187-28.207031-22.566407-67.949218-83.867188-16.820312-154.535157 3.019531-5.492187 9.074218-20.898437 3.289062-30.824219-5.921875-10.148437-22.746094-12.28125-35.8125-12.28125-3.773437 0-6.828125-3.050781-6.828125-6.824218 0-20.660156 16.808594-37.46875 37.460938-37.46875h76.59375c2.585937 0 4.945312 1.460937 6.105469 3.773437 1.464843 2.933594 2.234374 8.300781-.425782 13.742188-3.703125 7.558593-12.449218 13.171875-26.648437 17.039062 2.515625 6.367188 5.5625 16.132813 6.699219 28.113281 1.875 19.660157-1.203126 49.292969-26.503907 78.808594-41.714843 48.671875-9.007812 89.058594-7.59375 90.753906 2.238281 2.691407 2.082031 6.644532-.375 9.152344-1.328125 1.347656-3.101562 2.042969-4.875 2.042969zm-45.859375-212.554687c19.941406 1.269531 33.339844 7.601562 39.886719 18.882812 11.027344 19-2.828125 43.671875-3.421875 44.710938-.125.21875-.257812.425781-.40625.625-31.71875 43.621093-24.519531 80.273437-11.480469 104.542968-1.878906-18.753906 2.515625-42.261718 23.761719-67.039062 42.121094-49.148438 15.699219-97.386719 14.558594-99.414063-1.078125-1.90625-1.179688-4.222656-.265625-6.214843.914062-1.988282 2.714843-3.425782 4.859375-3.855469 14.90625-2.976563 21.167968-6.890625 23.773437-9.457031h-68.382812c-10.84375 0-20.015625 7.285156-22.882813 17.21875zm30.539063 60.207031h.070312zm0 0" fill="#4c241d"/><path d="m370.125 266.398438c22.976562-45.953126 7.660156-84.246094 7.660156-84.246094 0 22.976562-45.953125 68.929687-45.953125 68.929687 22.976563-30.636719 30.636719-84.25 30.636719-84.25 7.660156-84.25-38.292969-99.566406-38.292969-99.566406 4 62.441406-22.980469 99.566406-22.980469 99.566406v-68.25c0-6.847656-.429687-13.71875-1.886718-20.40625-14.042969-64.523437-82.359375-64.523437-82.359375-64.523437 18.222656 36.445312 17.175781 130.691406 15.960937 168.140625-.390625 12.089843-2.8125 24.0625-7.613281 35.164062-3.308594 7.660157-7.027344 14.648438-10.890625 20.953125-8.261719 13.480469-20.144531 24.09375-33.40625 32.699219-4.5625 2.960937-8.859375 6.480469-12.78125 10.578125-27.789062 29.03125-26.78125 75.085938 2.246094 102.875 29.027344 27.785156 82.167968 17.753906 102.871094-2.246094 20.707031-20 89.132812-69.460937 89.132812-69.460937l-53.613281 7.65625c-.003907 0 38.292969-7.65625 61.269531-53.613281zm0 0" fill="#fc8c29"/><path d="m217.707031 407.984375c-18.832031 0-37.847656-5.480469-51.964843-18.992187-15.355469-14.699219-24.070313-34.5-24.535157-55.753907-.464843-21.253906 7.375-41.421875 22.074219-56.773437 4.207031-4.386719 8.914062-8.285156 13.992188-11.585938 14.074218-9.128906 24.3125-19.113281 31.316406-30.542968 3.964844-6.472657 7.480468-13.230469 10.4375-20.085938 4.304687-9.96875 6.679687-20.960938 7.0625-32.679688.953125-29.605468 2.691406-128.992187-15.25-164.867187-1.058594-2.113281-.945313-4.625.300781-6.640625 1.25-2.015625 3.441406-3.238281 5.808594-3.238281.738281 0 73.984375.800781 89.03125 69.890625 1.394531 6.421875 2.039062 13.367187 2.039062 21.863281v38.679687c5.867188-16.367187 11.234375-40.0625 9.339844-69.5625-.144531-2.265624.847656-4.453124 2.648437-5.839843 1.808594-1.390625 4.171876-1.804688 6.328126-1.066407 2.085937.695313 50.984374 18.046876 42.929687 106.660157-.199219 1.441406-2.699219 18.464843-8.917969 38.753906 6.28125-9.445313 10.613282-18.179687 10.613282-24.054687 0-3.273438 2.320312-6.085938 5.53125-6.707032 3.175781-.59375 6.414062 1.125 7.636718 4.171875.671875 1.679688 16.171875 41.695313-7.894531 89.835938-8.734375 17.464843-19.546875 29.738281-29.878906 38.304687l15.144531-2.167968c3.09375-.410157 6.113281 1.289062 7.292969 4.203124 1.179687 2.910157.21875 6.25-2.324219 8.089844-.679688.496094-68.269531 49.402344-88.394531 68.839844-12.859375 12.429688-36.460938 21.265625-60.367188 21.265625zm9.785157-386.445313c14.242187 42.660157 13.394531 124.847657 12.234374 160.472657-.425781 13.433593-3.171874 26.109375-8.167968 37.652343-3.21875 7.445313-7.03125 14.789063-11.332032 21.808594-8.085937 13.199219-19.707031 24.597656-35.519531 34.859375-4.199219 2.726563-8.085937 5.945313-11.558593 9.570313-12.179688 12.722656-18.671876 29.429687-18.289063 47.035156s7.601563 34.015625 20.320313 46.1875c26.109374 24.992188 74.660156 15.878906 93.40625-2.222656 13.453124-12.992188 45.867187-37.597656 67.878906-53.9375l-26.644532 3.804687c-3.671874.519531-7.074218-1.957031-7.695312-5.605469-.625-3.648437 1.761719-7.121093 5.386719-7.847656 1.414062-.292968 35.425781-7.820312 56.507812-49.972656 10.824219-21.652344 12.570313-41.59375 11.664063-55.988281-12.886719 22.039062-35.546875 45.066406-39.023438 48.546875-2.535156 2.53125-6.601562 2.667968-9.300781.332031-2.707031-2.34375-3.140625-6.386719-.988281-9.253906 21.636718-28.84375 29.261718-80.597657 29.335937-81.117188 4.871094-53.613281-12.679687-76.988281-24.300781-86.414062.132812 56.527343-23.605469 89.90625-24.691406 91.394531-1.734375 2.398438-4.835938 3.390625-7.628906 2.476562-2.8125-.910156-4.71875-3.53125-4.71875-6.492187v-68.25c0-7.492187-.554688-13.519531-1.734376-18.957031-9.5-43.65625-46.660156-55.085938-65.140624-58.082032zm142.632812 244.859376h.066406zm0 0" fill="#4c241d"/><path d="m266.734375 331.09375c0 24.507812-19.867187 44.371094-44.375 44.371094s-44.375-19.863282-44.375-44.371094 19.867187-44.375 44.375-44.375 44.375 19.867188 44.375 44.375zm0 0" fill="#f53e28"/><g fill="#4c241d"><path d="m222.359375 382.292969c-28.234375 0-51.199219-22.964844-51.199219-51.199219s22.964844-51.199219 51.199219-51.199219 51.199219 22.964844 51.199219 51.199219-22.964844 51.199219-51.199219 51.199219zm0-88.746094c-20.699219 0-37.546875 16.847656-37.546875 37.546875s16.847656 37.546875 37.546875 37.546875 37.546875-16.847656 37.546875-37.546875-16.847656-37.546875-37.546875-37.546875zm0 0"/><path d="m237.574219 295.464844c-1.746094 0-3.488281-.664063-4.820313-1.992188-2.667968-2.660156-2.671875-6.980468-.019531-9.644531.453125-.460937 33.527344-34.628906 27.226563-85.007813-.46875-3.738281 2.183593-7.152343 5.925781-7.621093 3.773437-.445313 7.152343 2.1875 7.621093 5.925781 7.15625 57.269531-29.535156 94.769531-31.101562 96.335938-1.332031 1.339843-3.085938 2.003906-4.832031 2.003906zm0 0"/><path d="m265.113281 311.234375c-2.007812 0-3.988281-.875-5.332031-2.5625-2.363281-2.945313-1.882812-7.238281 1.058594-9.59375 5.828125-4.671875 22.054687-18.992187 27.09375-29.066406 1.691406-3.371094 5.78125-4.730469 9.160156-3.050781 3.371094 1.683593 4.738281 5.785156 3.050781 9.160156-7.414062 14.828125-29.824219 32.859375-30.773437 33.617187-1.257813 1.007813-2.765625 1.496094-4.257813 1.496094zm0 0"/><path d="m164.332031 163.839844c0 3.769531-3.054687 6.828125-6.824219 6.828125-3.773437 0-6.828124-3.058594-6.828124-6.828125 0-3.769532 3.054687-6.828125 6.828124-6.828125 3.769532 0 6.824219 3.058593 6.824219 6.828125zm0 0"/></g></svg>